<svg xmlns="http://www.w3.org/2000/svg" xmlns:xlink="http://www.w3.org/1999/xlink" width="145" height="117" viewBox="0 0 145 117">
    <defs>
        <filter id="4cszixqkca" width="201.5%" height="215.5%" x="-50.8%" y="-36.2%" filterUnits="objectBoundingBox">
            <feOffset dy="11" in="SourceAlpha" result="shadowOffsetOuter1"/>
            <feGaussianBlur in="shadowOffsetOuter1" result="shadowBlurOuter1" stdDeviation="8"/>
            <feColorMatrix in="shadowBlurOuter1" values="0 0 0 0 0 0 0 0 0 0 0 0 0 0 0 0 0 0 0.0951158217 0"/>
        </filter>
        <filter id="j5mn9d64jc" width="180.7%" height="215.5%" x="-40.3%" y="-36.2%" filterUnits="objectBoundingBox">
            <feOffset dy="11" in="SourceAlpha" result="shadowOffsetOuter1"/>
            <feGaussianBlur in="shadowOffsetOuter1" result="shadowBlurOuter1" stdDeviation="8"/>
            <feColorMatrix in="shadowBlurOuter1" values="0 0 0 0 0 0 0 0 0 0 0 0 0 0 0 0 0 0 0.0951158217 0"/>
        </filter>
        <path id="lp0ix94inb" d="M101.5 32.9c6.186 0 11.2 5.014 11.2 11.2V84H65.8c-6.186 0-11.2-5.014-11.2-11.2V44.1c0-6.186 5.014-11.2 11.2-11.2h35.7zM73.41 51.066c-1.476 0-2.802.307-3.978.922-1.176.614-2.098 1.466-2.764 2.557-.666 1.091-1 2.323-1 3.695 0 1.163.245 2.228.735 3.195.49.967 1.173 1.78 2.049 2.44.875.66 1.888 1.107 3.038 1.343.836.875 1.58 1.551 2.234 2.028.653.477 1.307.817 1.96 1.02.653.202 1.392.303 2.215.303s1.574-.147 2.254-.44c.594-.258 1.114-.623 1.558-1.095l.186-.21-1.999-2.351-.161.153c-.543.486-1.123.729-1.74.729-.248 0-.474-.043-.676-.128-.203-.085-.402-.232-.598-.44 1.359-.55 2.437-1.402 3.234-2.558.797-1.157 1.195-2.486 1.195-3.989 0-1.372-.333-2.604-1-3.695-.666-1.09-1.587-1.943-2.763-2.557-1.176-.615-2.502-.922-3.979-.922zM100.8 62.3h-9.1c-1.546 0-2.8 1.254-2.8 2.8 0 1.546 1.254 2.8 2.8 2.8h9.1c1.546 0 2.8-1.254 2.8-2.8 0-1.546-1.254-2.8-2.8-2.8zm-27.39-7.49c.575 0 1.095.14 1.559.421.463.281.833.68 1.107 1.196.274.516.412 1.12.412 1.813 0 .693-.138 1.297-.412 1.813-.274.516-.644.915-1.107 1.196-.464.28-.984.421-1.559.421s-1.094-.14-1.558-.421c-.464-.281-.833-.68-1.107-1.196-.275-.516-.412-1.12-.412-1.813 0-.693.137-1.297.412-1.813.274-.516.643-.915 1.107-1.196.464-.28.983-.421 1.558-.421zm27.39-3.71h-9.1c-1.546 0-2.8 1.254-2.8 2.8 0 1.546 1.254 2.8 2.8 2.8h9.1c1.546 0 2.8-1.254 2.8-2.8 0-1.546-1.254-2.8-2.8-2.8z"/>
        <path id="sg9xkyd1xd" d="M61.95 0c6.186 0 11.2 5.014 11.2 11.2v28.7c0 6.186-5.014 11.2-11.2 11.2H0V11.2C0 5.014 5.014 0 11.2 0h50.75zM46.2 28.7h-9.1c-1.546 0-2.8 1.254-2.8 2.8 0 1.546 1.254 2.8 2.8 2.8h9.1c1.546 0 2.8-1.254 2.8-2.8 0-1.546-1.254-2.8-2.8-2.8zm-25.528-9.52h-4.547L10.128 32.9h4.704l.92-2.391h5.214l.922 2.391h4.782l-5.998-13.72zm-2.312 4.547l1.332 3.45h-2.665l1.333-3.45zM60.2 17.5H37.1c-1.546 0-2.8 1.254-2.8 2.8 0 1.546 1.254 2.8 2.8 2.8h23.1c1.546 0 2.8-1.254 2.8-2.8 0-1.546-1.254-2.8-2.8-2.8z"/>
    </defs>
    <g fill="none" fill-rule="evenodd" opacity=".802">
        <g>
            <g>
                <g opacity=".586" transform="translate(-684 -340) translate(700 345)">
                    <use fill="#000" filter="url(#4cszixqkca)" xlink:href="#lp0ix94inb"/>
                    <use fill="#FFF" xlink:href="#lp0ix94inb"/>
                </g>
                <g transform="translate(-684 -340) translate(700 345)">
                    <use fill="#000" filter="url(#j5mn9d64jc)" xlink:href="#sg9xkyd1xd"/>
                    <use fill="#FFF" xlink:href="#sg9xkyd1xd"/>
                </g>
            </g>
        </g>
    </g>
</svg>
