<svg xmlns="http://www.w3.org/2000/svg" width="96" height="49" viewBox="0 0 96 49">
    <defs>
        <linearGradient id="h6v1wa9hha" x1=".007%" x2="100.009%" y1="49.993%" y2="49.993%">
            <stop offset="0%" stop-color="#DC453B"/>
            <stop offset="36%" stop-color="#FBD816"/>
            <stop offset="58%" stop-color="#E0E31C"/>
            <stop offset="100%" stop-color="#65B746"/>
        </linearGradient>
    </defs>
    <g fill="none" fill-rule="evenodd">
        <g>
            <g>
                <path fill="#FFF" d="M48.153 0C66.478-.02 83.92 7.87 96 21.646c-7.3 3.413-13.405 8.937-17.527 15.854h.027V47c0 1.105-.895 2-2 2H20c-1.105 0-2-.895-2-2l-.001-9.23-.28-.472C13.594 30.476 7.533 25.026.3 21.646 12.384 7.87 29.827-.02 48.153 0z" opacity=".549" transform="translate(-813 -253) translate(813 253)"/>
                <path fill="url(#h6v1wa9hha)" d="M47.856 13.751c11.444 0 22.035 3.802 30.403 10.334 1.455 1.146 4.78 2.585 6.934-.166 1.893-2.397.462-5.41-1.007-6.578C74.222 9.441 61.572 4.8 47.856 4.8 34.14 4.8 21.49 9.441 11.525 17.341c-1.48 1.168-2.911 4.187-1.018 6.578 2.166 2.75 5.478 1.312 6.947.166 8.372-6.54 18.952-10.334 30.402-10.334z" transform="translate(-813 -253) translate(813 253)"/>
                <path fill="#9B9B9B" fill-rule="nonzero" d="M15.833 28.87c.197 0 .372-.05.527-.153.155-.102.277-.25.366-.444.088-.195.133-.425.133-.692 0-.266-.045-.496-.133-.69-.09-.195-.211-.343-.366-.445-.155-.102-.33-.153-.527-.153-.2 0-.376.05-.531.153-.155.102-.277.25-.366.444-.088.195-.133.425-.133.691 0 .267.045.497.133.692.09.194.211.342.366.444.155.102.332.153.53.153zm0-.32c-.204 0-.367-.083-.488-.249-.121-.165-.182-.405-.182-.72 0-.314.06-.554.182-.72.121-.165.284-.248.488-.248.201 0 .363.083.484.248.121.166.182.406.182.72 0 .315-.06.555-.182.72-.121.166-.283.249-.484.249z" transform="translate(-813 -253) translate(813 253) rotate(-40 15.831 27.581)"/>
                <path fill="#9B9B9B" fill-rule="nonzero" d="M73.918 27.348v-2.52h-.925v.313h.569v2.207h.356zm1.58.029c.197 0 .373-.051.528-.153.155-.102.277-.25.365-.445.09-.194.134-.425.134-.691 0-.266-.045-.497-.134-.691-.088-.195-.21-.343-.365-.445-.155-.102-.33-.153-.527-.153-.2 0-.377.051-.531.153-.155.102-.277.25-.366.445-.089.194-.133.425-.133.691 0 .266.044.497.133.691.089.195.21.343.366.445.154.102.331.153.53.153zm0-.32c-.203 0-.366-.083-.487-.249-.121-.166-.182-.406-.182-.72 0-.314.06-.554.182-.72.121-.166.284-.248.488-.248.201 0 .363.082.484.248.121.166.182.406.182.72 0 .314-.061.554-.182.72-.121.166-.283.248-.484.248zm2.402.32c.197 0 .372-.051.527-.153.155-.102.277-.25.366-.445.088-.194.133-.425.133-.691 0-.266-.045-.497-.133-.691-.09-.195-.211-.343-.366-.445-.155-.102-.33-.153-.527-.153-.2 0-.376.051-.531.153-.155.102-.277.25-.366.445-.088.194-.133.425-.133.691 0 .266.045.497.133.691.09.195.211.343.366.445.155.102.332.153.53.153zm0-.32c-.204 0-.367-.083-.488-.249-.121-.166-.182-.406-.182-.72 0-.314.06-.554.182-.72.121-.166.284-.248.488-.248.201 0 .363.082.484.248.121.166.182.406.182.72 0 .314-.06.554-.182.72-.121.166-.283.248-.484.248z" transform="translate(-813 -253) translate(813 253) rotate(33 75.96 26.088)"/>
                <path fill="#555554" fill-rule="nonzero" d="M69.27 30c-12.89-8.054-29.35-8.054-42.24 0l-.63-.978c13.274-8.296 30.226-8.296 43.5 0l-.63.978z" transform="translate(-813 -253) translate(813 253)"/>
                <path fill="#555554" fill-rule="nonzero" d="M73.073 13.745L73.662 13.745 73.669 30.557 73.08 30.556z" transform="translate(-813 -253) translate(813 253) scale(-1 1) rotate(-33 0 269.847)"/>
                <path fill="#4A4A4A" fill-rule="nonzero" d="M42.616 36.168c.888 0 1.67-.18 2.346-.54.676-.36 1.2-.886 1.572-1.578.372-.692.558-1.518.558-2.478 0-1.336-.348-2.36-1.044-3.072-.696-.712-1.648-1.068-2.856-1.068-.608 0-1.162.118-1.662.354s-.896.572-1.188 1.008c-.292.436-.438.938-.438 1.506 0 .52.13.982.39 1.386.26.404.61.716 1.05.936.44.22.924.33 1.452.33.776 0 1.404-.204 1.884-.612-.064.632-.282 1.114-.654 1.446-.372.332-.858.498-1.458.498-.624 0-1.14-.144-1.548-.432l-.864 1.704c.304.192.672.342 1.104.45.432.108.884.162 1.356.162zm.744-4.92c-.344 0-.622-.096-.834-.288-.212-.192-.318-.448-.318-.768 0-.328.106-.588.318-.78.212-.192.486-.288.822-.288.36 0 .646.098.858.294.212.196.318.45.318.762 0 .32-.108.578-.324.774-.216.196-.496.294-.84.294zm8.436 4.92c.616 0 1.174-.118 1.674-.354s.896-.572 1.188-1.008c.292-.436.438-.938.438-1.506 0-.52-.13-.982-.39-1.386-.26-.404-.61-.716-1.05-.936-.44-.22-.924-.33-1.452-.33-.784 0-1.416.208-1.896.624.056-.632.272-1.116.648-1.452.376-.336.868-.504 1.476-.504.624 0 1.14.144 1.548.432l.864-1.704c-.304-.2-.672-.352-1.104-.456-.432-.104-.888-.156-1.368-.156-.888 0-1.668.18-2.34.54-.672.36-1.194.886-1.566 1.578-.372.692-.558 1.518-.558 2.478 0 1.336.348 2.36 1.044 3.072.696.712 1.644 1.068 2.844 1.068zm-.144-1.692c-.36 0-.646-.098-.858-.294-.212-.196-.318-.45-.318-.762 0-.32.108-.578.324-.774.216-.196.496-.294.84-.294s.622.096.834.288c.212.192.318.448.318.768 0 .328-.106.588-.318.78-.212.192-.486.288-.822.288z" transform="translate(-813 -253) translate(813 253)"/>
                <path fill="#C4C4C4" d="M86.1 19.675c-.312-.935-.88-1.765-1.638-2.397C74.54 9.418 61.946 4.8 48.289 4.8c-13.656 0-26.253 4.618-36.174 12.478-1.379 1.097-2.733 3.818-1.309 6.122-.624-2.057.543-4.23 1.733-5.181 9.921-7.863 22.518-12.48 36.175-12.48 13.657 0 26.251 4.617 36.172 12.48.488.41.9.902 1.214 1.456z" style="mix-blend-mode:multiply" transform="translate(-813 -253) translate(813 253)"/>
                <path fill="#4A4A4A" fill-rule="nonzero" d="M32.965 45.406c.348 0 .702-.051 1.063-.152.36-.101.677-.247.95-.436v-1.953h-1.353v1.168c-.18.075-.37.112-.567.112-.335 0-.602-.106-.802-.317-.2-.211-.3-.49-.3-.838 0-.356.1-.638.303-.845.202-.207.475-.31.818-.31.4 0 .746.17 1.037.508l.996-.878c-.237-.29-.535-.511-.894-.663-.359-.152-.765-.228-1.218-.228-.501 0-.951.103-1.35.307-.398.205-.708.49-.93.858-.222.368-.333.785-.333 1.251 0 .466.11.883.333 1.25.222.368.529.654.92.859.392.204.834.307 1.327.307zm4.541-.04c.405 0 .767-.08 1.086-.24.319-.161.567-.384.745-.667.179-.284.268-.607.268-.967 0-.361-.09-.683-.267-.967-.179-.284-.427-.505-.746-.664-.32-.158-.681-.237-1.086-.237-.4 0-.76.079-1.08.237-.318.159-.568.38-.748.664-.18.284-.27.606-.27.967 0 .36.09.683.27.967.18.283.43.505.749.666.319.16.679.241 1.079.241zm0-1.162c-.172 0-.312-.062-.422-.188-.11-.125-.165-.3-.165-.524 0-.225.055-.399.165-.522.11-.123.25-.185.422-.185s.312.062.422.185c.11.123.165.297.165.522 0 .224-.055.399-.165.524-.11.126-.25.188-.422.188zm4.475 1.162c.405 0 .767-.08 1.085-.24.32-.161.568-.384.746-.667.178-.284.268-.607.268-.967 0-.361-.09-.683-.268-.967-.178-.284-.426-.505-.745-.664-.32-.158-.681-.237-1.086-.237-.4 0-.76.079-1.08.237-.318.159-.568.38-.748.664-.18.284-.271.606-.271.967 0 .36.09.683.27.967.181.283.43.505.75.666.319.16.678.241 1.079.241zm0-1.162c-.172 0-.313-.062-.423-.188-.11-.125-.165-.3-.165-.524 0-.225.055-.399.165-.522.11-.123.251-.185.423-.185.171 0 .312.062.422.185.11.123.165.297.165.522 0 .224-.055.399-.165.524-.11.126-.25.188-.422.188zm4.151 1.162c.445 0 .775-.121.99-.363v.297h1.42v-4.897H47.05v1.531c-.212-.207-.517-.31-.918-.31-.317 0-.608.076-.874.227-.267.152-.478.37-.634.654-.156.284-.234.613-.234.987s.078.704.234.99c.156.286.367.505.634.656.266.152.557.228.874.228zm.357-1.162c-.172 0-.313-.062-.423-.188-.11-.125-.165-.3-.165-.524 0-.225.055-.399.165-.522.11-.123.251-.185.423-.185.171 0 .312.062.422.185.11.123.165.297.165.522 0 .224-.055.399-.165.524-.11.126-.25.188-.422.188zm5.907 1.202c.624 0 1.099-.158 1.422-.472.323-.315.485-.787.485-1.416V40.68h-3.109v1.175h1.571v1.755c0 .19-.043.333-.129.43-.085.096-.21.145-.372.145-.128 0-.251-.038-.37-.113-.119-.074-.24-.189-.363-.343l-.838.99c.189.225.43.395.723.512.292.116.619.175.98.175zm4.481-.04c.405 0 .767-.08 1.086-.24.319-.161.567-.384.745-.667.179-.284.268-.607.268-.967 0-.361-.09-.683-.267-.967-.179-.284-.427-.505-.746-.664-.32-.158-.681-.237-1.086-.237-.4 0-.76.079-1.08.237-.318.159-.568.38-.748.664-.18.284-.27.606-.27.967 0 .36.09.683.27.967.18.283.43.505.749.666.319.16.679.241 1.079.241zm0-1.162c-.172 0-.312-.062-.422-.188-.11-.125-.165-.3-.165-.524 0-.225.055-.399.165-.522.11-.123.25-.185.422-.185s.312.062.422.185c.11.123.165.297.165.522 0 .224-.055.399-.165.524-.11.126-.25.188-.422.188zm4.976 1.162c.317 0 .609-.076.875-.228.266-.151.477-.37.633-.656.157-.286.235-.616.235-.99s-.078-.703-.234-.987c-.157-.284-.368-.502-.634-.654-.266-.151-.558-.227-.875-.227-.4 0-.706.103-.917.31v-1.531h-1.492V45.3h1.42v-.297c.215.242.545.363.99.363zm-.356-1.162c-.172 0-.312-.062-.422-.188-.11-.125-.165-.3-.165-.524 0-.225.055-.399.165-.522.11-.123.25-.185.422-.185s.312.062.422.185c.11.123.165.297.165.522 0 .224-.055.399-.165.524-.11.126-.25.188-.422.188zm3.868-.673l.297-2.851H63.88l.297 2.851h1.188zm-.594 1.835c.255 0 .464-.077.627-.231.162-.154.244-.341.244-.561 0-.224-.082-.41-.244-.558-.163-.147-.372-.22-.627-.22-.256 0-.465.073-.627.22-.163.148-.245.334-.245.558 0 .22.082.407.245.561.162.154.371.231.627.231z" transform="translate(-813 -253) translate(813 253)"/>
            </g>
        </g>
    </g>
</svg>
