<svg xmlns="http://www.w3.org/2000/svg" width="58" height="58" viewBox="0 0 58 58">
    <g fill="none" fill-rule="evenodd">
        <g>
            <g>
                <path stroke="#FFF" stroke-width=".758" d="M43.056 3.537c-1.668-2.9-5.25-3.226-7.654-1.425-5.387 4.036-7.317 12.483-10.351 18.198-3.266 6.15-5.748 12.811-7.769 19.486-1.069 3.53-3.056 10.068-.622 13.491 1.825 2.567 10.872 5.662 19.662-18.6 1.524-4.206 3.128-8.423 4.433-12.662.745-2.424 3.894-15.72 2.301-18.488z" transform="translate(-994 -273) translate(994 274)"/>
                <path stroke="#FFF" stroke-width=".758" d="M22.049.186c-3.218-.878-5.98 1.476-6.415 4.506-.973 6.786 3.6 14.243 5.471 20.537 2.013 6.772 4.94 13.347 8.202 19.597 1.726 3.306 4.915 9.435 9.043 10.133 3.094.525 11.668-3.787.832-27.55-1.88-4.12-3.708-8.306-5.766-12.29C32.239 12.839 25.12 1.023 22.049.186z" transform="translate(-994 -273) translate(994 274)"/>
                <path stroke="#FFF" stroke-width=".758" d="M5.037 14.444c-2.9 1.668-3.226 5.25-1.425 7.654 4.036 5.387 12.483 7.317 18.198 10.351 6.15 3.265 12.811 5.748 19.485 7.768 3.531 1.07 10.069 3.057 13.492.623 2.567-1.825 5.661-10.872-18.6-19.661-4.205-1.525-8.423-3.13-12.662-4.434C21.1 16 7.805 12.851 5.037 14.444z" transform="translate(-994 -273) translate(994 274)"/>
                <path stroke="#FFF" stroke-width=".758" d="M3.682 35.451c-.861 3.218 1.45 5.98 4.424 6.415 6.663.973 13.985-3.6 20.164-5.471 6.65-2.013 13.104-4.94 19.24-8.202 3.247-1.726 9.264-4.915 9.95-9.043.515-3.094-3.718-11.668-27.049-.832-4.046 1.88-8.155 3.708-12.068 5.766-2.237 1.177-13.838 8.295-14.66 11.367z" transform="translate(-994 -273) translate(994 274)"/>
                <path fill="#FFF" d="M35.22 29.06c-.862 2.33-3.45 3.521-5.78 2.66-2.33-.861-3.52-3.45-2.66-5.78.862-2.33 3.45-3.521 5.78-2.66 2.33.861 3.52 3.45 2.66 5.78" transform="translate(-994 -273) translate(994 274)"/>
                <path stroke="#FFF" stroke-linecap="round" stroke-linejoin="round" stroke-width=".758" d="M13.477 2c-.69 1.42-1.222 2.643-.81 4M10.5 8c.146 1.076.413 2.143 1 3M46.5 3c-.522 1.297-.953 3.623-1 5M52.5 23c-2.04 1.88-4.83 2.454-7 4M13.22 47c-1.44 3.057-.57 4.632 1.28 7M24.5 56c.707-.974 1.988-1.563 3-2M47.5 48c-.423 1.553-.478 3.194-1.287 4.655-.499.9-1.217 1.478-1.713 2.345M1.5 33c-.373 1.132-1.565 3.041-.68 4" transform="translate(-994 -273) translate(994 274)"/>
            </g>
        </g>
    </g>
</svg>
