<?xml version="1.0" encoding="UTF-8"?>
<svg width="60px" height="57px" viewBox="0 0 60 57" version="1.1" xmlns="http://www.w3.org/2000/svg" xmlns:xlink="http://www.w3.org/1999/xlink">
    <!-- Generator: Sketch 59.1 (86144) - https://sketch.com -->
    <title>Group 29</title>
    <desc>Created with Sketch.</desc>
    <defs>
        <polygon id="path-1" points="0.529755552 0.35118998 9.97829692 0.35118998 9.97829692 9.79999983 0.529755552 9.79999983"></polygon>
        <polygon id="path-3" points="0.000129055216 0.499799991 6.76415041 0.499799991 6.76415041 7.2636704 0.000129055216 7.2636704"></polygon>
    </defs>
    <g id="Page-1" stroke="none" stroke-width="1" fill="none" fill-rule="evenodd" opacity="0.743504116">
        <g id="Geneo-Home-UI" transform="translate(-1013.000000, -321.000000)">
            <g id="Group-70" transform="translate(428.000000, 298.000000)">
                <g id="Group-36" transform="translate(218.500000, 7.000000)">
                    <g id="Group-21" transform="translate(47.500000, 0.000000)">
                        <g id="Group-29" transform="translate(319.000000, 16.000000)">
                            <path d="M21.1892096,13.0328798 C23.4208096,16.4278797 26.1025096,19.3321797 28.6526095,22.4282796 C30.0897095,24.1726796 31.4778095,26.5638795 33.1123094,27.9148795" id="Stroke-1" stroke="#FFFFFF" stroke-width="1.24529998"></path>
                            <path d="M2.90786995,4.08603993 C8.17956986,5.49093991 14.7609697,7.59653987 19.3893697,10.3314398" id="Stroke-3" stroke="#FFFFFF" stroke-width="1.24529998"></path>
                            <path d="M6.20486989,23.7304896 C8.37696986,20.8436896 12.7911698,19.1930897 15.5092697,16.6856897 C16.5732697,15.7042897 17.8066697,14.8180897 18.6039697,13.6742898" id="Stroke-5" stroke="#FFFFFF" stroke-width="1.24529998"></path>
                            <path d="M56.563849,5.9566499 C54.7858491,12.6101498 50.4031491,16.5294497 46.0141492,21.4826496 C43.7552493,24.0320496 41.4767493,26.6710495 39.2094493,29.0671495" id="Stroke-7" stroke="#FFFFFF" stroke-width="1.24529998"></path>
                            <path d="M34.2253794,32.0784795 C35.3579794,38.5751793 40.3188793,44.3102792 41.6852793,50.6095791" id="Stroke-9" stroke="#FFFFFF" stroke-width="1.24529998"></path>
                            <path d="M55.0633291,30.3418495 C49.6460292,28.6814495 44.1986292,28.9558495 38.8219293,27.9926495" id="Stroke-11" stroke="#FFFFFF" stroke-width="1.24529998"></path>
                            <path d="M39.8157893,30.6142195 C38.8987893,33.6053194 35.7305894,35.2874194 32.7394894,34.3711194 C29.7476895,33.4541194 28.0662895,30.2859195 28.9825895,27.2948195 C29.8995895,24.3030196 33.0677894,22.6216196 36.0588894,23.5379196 C39.0499893,24.4549196 40.7327893,27.6231195 39.8157893,30.6142195" id="Fill-13" fill="#FFFFFF"></path>
                            <g id="Group-17" transform="translate(39.199999, 47.100339)">
                                <mask id="mask-2" fill="white">
                                    <use xlink:href="#path-1"></use>
                                </mask>
                                <g id="Clip-16"></g>
                                <path d="M9.76975983,6.45938989 C9.00535985,8.95348985 6.36425989,10.3555898 3.86945993,9.59188984 C1.37605998,8.82748985 -0.0260399996,6.18568989 0.738359987,3.69158994 C1.50205997,1.19748998 4.14385993,-0.204609997 6.63725989,0.55978999 C9.13135984,1.32418998 10.5341598,3.96528993 9.76975983,6.45938989" id="Fill-15" fill="#FFFFFF" mask="url(#mask-2)"></path>
                            </g>
                            <g id="Group-20" transform="translate(0.000000, 0.200340)">
                                <mask id="mask-4" fill="white">
                                    <use xlink:href="#path-3"></use>
                                </mask>
                                <g id="Clip-19"></g>
                                <path d="M6.61499989,4.87241992 C6.0675999,6.65811989 4.17689993,7.66121987 2.39119996,7.11451988 C0.60619999,6.56711989 -0.398299993,4.67641992 0.149799997,2.89071995 C0.696499988,1.10571998 2.58719996,0.101919998 4.37289993,0.648619989 C6.1585999,1.19601998 7.16169988,3.08671995 6.61499989,4.87241992" id="Fill-18" fill="#FFFFFF" mask="url(#mask-4)"></path>
                            </g>
                            <path d="M25.2210696,13.3576098 C24.6043696,15.3701097 22.4721696,16.5020097 20.4596697,15.8853097 C18.4471697,15.2686097 17.3152697,13.1371098 17.9326697,11.1246098 C18.5493697,9.11140984 20.6808696,7.97950986 22.6940696,8.59690985 C24.7065696,9.21360984 25.8377696,11.3451098 25.2210696,13.3576098" id="Fill-21" fill="#FFFFFF"></path>
                            <path d="M59.603809,31.8676395 C58.987109,33.8801394 56.854909,35.0120394 54.8424091,34.3953394 C52.8299091,33.7786394 51.6980091,31.6471395 52.3154091,29.6339395 C52.9321091,27.6214395 55.0636091,26.4895395 57.076809,27.1069395 C59.089309,27.7236395 60.220509,29.8551395 59.603809,31.8676395" id="Fill-23" fill="#FFFFFF"></path>
                            <path d="M8.75944985,24.5049696 C8.14274986,26.5174695 6.0112499,27.6493695 3.99804993,27.0319695 C1.98554997,26.4152696 0.854349985,24.2837696 1.47104997,22.2712696 C2.08774996,20.2587697 4.21994993,19.1268697 6.23244989,19.7435697 C8.24494986,20.3602697 9.37684984,22.4924696 8.75944985,24.5049696" id="Fill-25" fill="#FFFFFF"></path>
                            <path d="M59.592819,5.8859499 C58.976119,7.89844987 56.843919,9.03034985 54.8314191,8.41294986 C52.8189191,7.79624987 51.6877191,5.6647499 52.3044191,3.65224994 C52.9211191,1.63974997 55.0526191,0.507849991 57.065819,1.12454998 C59.078319,1.74124997 60.209519,3.87344993 59.592819,5.8859499" id="Fill-27" fill="#FFFFFF"></path>
                        </g>
                    </g>
                </g>
            </g>
        </g>
    </g>
</svg>