<?xml version="1.0" encoding="UTF-8"?>
<svg width="66px" height="81px" viewBox="0 0 66 81" version="1.1" xmlns="http://www.w3.org/2000/svg" xmlns:xlink="http://www.w3.org/1999/xlink">
    <!-- Generator: Sketch 59.1 (86144) - https://sketch.com -->
    <title>Group 46</title>
    <desc>Created with Sketch.</desc>
    <defs>
        <polygon id="path-1" points="0.376793309 0.0467999972 2.66100907 0.0467999972 2.66100907 2.33082653 0.376793309 2.33082653"></polygon>
    </defs>
    <g id="Page-1" stroke="none" stroke-width="1" fill="none" fill-rule="evenodd" opacity="0.7">
        <g id="Geneo-Home-UI" transform="translate(-1079.000000, -584.000000)">
            <g id="Group-70" transform="translate(428.000000, 298.000000)">
                <g id="Group-36" transform="translate(218.500000, 7.000000)">
                    <g id="Group-21" transform="translate(47.500000, 0.000000)">
                        <g id="Group-46" transform="translate(385.000000, 279.000000)">
                            <path d="M3.97685976,24.8805585 C4.02845976,24.7971585 4.08965976,24.7137585 4.14725975,24.6297585 C4.06685976,24.7089585 4.00145976,24.7941585 3.97685976,24.8805585" id="Fill-1" fill="#539A92"></path>
                            <path d="M30.2755182,29.6072982 C27.3211184,26.2178984 23.8381186,22.7906986 21.7663187,18.8198989 C24.2383186,17.538299 26.7895184,16.272299 29.1703183,14.8352991 C28.4725183,13.6022992 27.5833184,12.6296992 26.5471184,11.6390993 C21.7477187,13.4546992 10.0657194,20.9504988 5.62931966,23.8166986 C4.69511972,24.4196985 4.51751973,25.7360985 5.29271968,26.5322984 C7.80011954,29.1080983 9.34751944,26.9870984 13.6165192,24.9800985 C15.5239191,28.1720983 17.301719,31.0814981 19.5691188,34.049098 C20.1121188,34.7594979 20.5219188,35.3132979 20.8585188,35.7476979 C12.8143192,43.9802974 10.9009194,56.9948966 17.359919,67.482896 C24.1045186,78.4352953 38.1619177,82.7804951 49.907517,77.5388954 C63.7675162,71.3528957 69.2791159,54.8612967 62.2753163,41.6894975 C56.0875167,30.0506982 42.2887175,25.0706985 30.2755182,29.6072982 Z" id="Stroke-3" stroke="#FFFFFF" stroke-width="1.19999993"></path>
                            <path d="M17.415359,57.4058966 C19.1625589,62.4506963 21.6981587,69.1904959 26.5299584,72.2498957 C30.4335582,74.7218955 35.2389579,76.4018954 39.9015576,75.7688955 C44.4897573,75.1460955 48.9627571,72.8240957 52.6743569,70.0988958 C53.8119568,69.2636959 55.2651567,68.3684959 56.1687567,67.268696 C56.7441566,66.568496 57.2469566,65.5706961 57.6981566,64.7756961 C58.6323565,63.1304962 59.4105565,61.3430963 59.9601564,59.5424965 C61.2489563,55.3244967 61.7547563,51.159897 59.8731564,46.9778972 C59.1009565,45.2618973 58.1439565,43.5146974 57.0357566,42.0182975 C56.2467566,40.9526976 55.5969567,39.6062976 54.3159568,39.0098977 C53.1009568,38.4446977 51.8331569,38.5424977 50.621757,39.0932977 C48.9939571,39.8318976 48.7437571,41.2928975 47.6985572,42.5660975 C45.1755573,45.6380973 40.1457576,43.0262974 37.1943578,45.7442973 C34.7733579,47.9750971 34.4559579,52.3064969 31.2795581,53.5694968 C29.2221583,54.3878968 26.7447584,54.4040968 24.5619585,54.5786967 C23.3199586,54.6776967 21.8427587,55.1132967 20.6853588,55.5500967 C19.5627588,55.9736967 17.080559,57.0416966 17.415359,57.4058966" id="Fill-5" fill="#FFFFFF"></path>
                            <path d="M36.9329378,67.495196 C37.3817378,68.3387959 37.0613378,69.3863959 36.2177378,69.8351958 C35.3735379,70.2833958 34.325938,69.9635958 33.877138,69.1199959 C33.428938,68.2763959 33.748738,67.228796 34.5929379,66.779996 C35.4365379,66.331196 36.4841378,66.651596 36.9329378,67.495196" id="Fill-7" fill="#FFD552"></path>
                            <path d="M44.6045973,51.134637 C44.7587973,51.4244369 44.6489973,51.7844369 44.3585974,51.9392369 C44.0681974,52.0934369 43.7087974,51.9830369 43.5545974,51.6932369 C43.3997974,51.4028369 43.5101974,51.042837 43.7999974,50.888637 C44.0903974,50.734437 44.4503974,50.844837 44.6045973,51.134637" id="Fill-9" fill="#FFD552"></path>
                            <path d="M38.9749177,55.4359767 C39.1201177,55.7089767 39.0163177,56.0485767 38.7433177,56.1937767 C38.4703177,56.3389766 38.1313177,56.2351766 37.9861177,55.9621767 C37.8403177,55.6885767 37.9441177,55.3489767 38.2171177,55.2043767 C38.4901177,55.0591767 38.8297177,55.1629767 38.9749177,55.4359767" id="Fill-11" fill="#FFD552"></path>
                            <path d="M48.6645571,59.4608365 C49.0761571,60.2342364 48.7821571,61.1948364 48.0087571,61.6058363 C47.2353572,62.0174363 46.2753572,61.7234363 45.8637573,60.9500364 C45.4521573,60.1766364 45.7461573,59.2166365 46.5195572,58.8050365 C47.2929572,58.3940365 48.2529571,58.6874365 48.6645571,59.4608365" id="Fill-13" fill="#FFD552"></path>
                            <path d="M54.2426968,55.1072967 C54.5600967,55.7048967 54.3332968,56.4464966 53.7356968,56.7650966 C53.1380968,57.0824966 52.3958969,56.8556966 52.0784969,56.2580966 C51.7604969,55.6604967 51.9872969,54.9182967 52.5848969,54.6002967 C53.1824968,54.2828968 53.9246968,54.5096968 54.2426968,55.1072967" id="Fill-15" fill="#FFD552"></path>
                            <path d="M52.8891568,64.9047561 C53.1531568,65.4015561 52.9647568,66.0189561 52.4673569,66.283556 C51.9705569,66.548156 51.3525569,66.359156 51.087957,65.8623561 C50.823957,65.3649561 51.012357,64.7469561 51.5097569,64.4829562 C52.0071569,64.2183562 52.6251569,64.4073562 52.8891568,64.9047561" id="Fill-17" fill="#FFD552"></path>
                            <path d="M32.0227781,60.3080964 C32.2717781,60.7766964 32.0935781,61.3586963 31.6249781,61.6076963 C31.1563781,61.8572963 30.5743782,61.6790963 30.3253782,61.2104964 C30.0757782,60.7418964 30.2539782,60.1598964 30.7225782,59.9102964 C31.1911781,59.6612964 31.7731781,59.8394964 32.0227781,60.3080964" id="Fill-19" fill="#FFD552"></path>
                            <path d="M22.7614186,59.6365764 C22.9006186,59.8993764 22.8010186,60.2257764 22.5388187,60.3655764 C22.2754187,60.5047764 21.9496187,60.4051764 21.8098187,60.1429764 C21.6706187,59.8795764 21.7702187,59.5537765 22.0324187,59.4139765 C22.2958187,59.2741765 22.6216187,59.3743765 22.7614186,59.6365764" id="Fill-21" fill="#FFD552"></path>
                            <path d="M55.0553967,45.0672573 C55.2923967,45.5124573 55.1225967,46.0656573 54.6773967,46.3026572 C54.2321968,46.5390572 53.6795968,46.3704572 53.4425968,45.9252573 C53.2055968,45.4794573 53.3747968,44.9268573 53.8199968,44.6898573 C54.2657968,44.4534574 54.8183967,44.6220573 55.0553967,45.0672573" id="Fill-23" fill="#FFD552"></path>
                            <path d="M20.5530588,40.1693976 C21.1374587,40.3853976 21.9378587,40.5995976 22.5732587,40.6517976 C21.8232587,44.3819974 18.8604589,47.9435971 20.2080588,51.8777969 C19.7070588,52.2041969 17.8278589,53.0267968 17.235059,52.6265969 C16.091459,51.8555969 17.149259,48.2921971 17.312459,47.0717972 C17.6166589,44.7893973 18.2346589,42.9047974 20.5530588,40.1693976" id="Fill-25" fill="#FFFFFF"></path>
                            <path d="M15.7383591,19.6492788 C17.9871589,18.6004789 20.2959588,16.846079 22.2861587,15.3832791 C22.8273586,14.9854791 23.7237586,13.9432792 24.1833586,15.0370791 C21.9441587,16.262279 19.9203588,18.0748789 17.7543589,19.4482788 C17.160959,19.8244788 16.254359,20.4526788 15.7383591,19.6492788" id="Fill-27" fill="#FFFFFF"></path>
                            <path d="M33.761818,37.9897177 C33.973618,38.3875177 33.823018,38.8813177 33.424618,39.0931177 C33.026218,39.3049177 32.5324181,39.1537177 32.3212181,38.7553177 C32.1094181,38.3575177 32.2600181,37.8637177 32.6584181,37.6525178 C33.056218,37.4407178 33.550018,37.5913178 33.761818,37.9897177" id="Fill-29" fill="#FFFFFF"></path>
                            <path d="M30.7694382,46.7483372 C31.1270381,47.4203372 30.8720382,48.2543371 30.2000382,48.6113371 C29.5286382,48.9683371 28.6940383,48.7133371 28.3370383,48.0419371 C27.9800383,47.3699372 28.2350383,46.5359372 28.9070383,46.1789372 C29.5784382,45.8219373 30.4124382,46.0769373 30.7694382,46.7483372" id="Fill-31" fill="#FFFFFF"></path>
                            <path d="M19.7918988,26.1028184 C20.1776988,26.8282184 19.9028988,27.7294183 19.1768989,28.1152183 C18.4514989,28.5004183 17.550899,28.2250183 17.165099,27.4996184 C16.779299,26.7742184 17.054699,25.8736185 17.7800989,25.4878185 C18.5054989,25.1020185 19.4060988,25.3774185 19.7918988,26.1028184" id="Fill-33" fill="#FFFFFF"></path>
                            <path d="M16.276259,10.2332994 C16.721459,11.0708993 16.403459,12.1106993 15.5658591,12.5558993 C14.7288591,13.0010992 13.6890592,12.6830992 13.2432592,11.8460993 C12.7980592,11.0078993 13.1160592,9.96869941 13.9536592,9.52289943 C14.7906591,9.07769946 15.8310591,9.39569944 16.276259,10.2332994" id="Fill-35" fill="#FFFFFF"></path>
                            <path d="M2.85827983,10.6264194 C3.25127981,11.3662193 2.97047982,12.2854193 2.23067987,12.6790192 C1.49087991,13.0720192 0.571079966,12.7912192 0.178079989,12.0514193 C-0.215519987,11.3116193 0.0652799961,10.3918194 0.805679952,9.9988194 C1.54547991,9.60521943 2.46467985,9.88661941 2.85827983,10.6264194" id="Fill-37" fill="#FFFFFF"></path>
                            <path d="M10.5264594,16.726619 C10.7178594,17.087819 10.5816594,17.536019 10.2204594,17.7274189 C9.85985941,17.9194189 9.41165944,17.7826189 9.21965945,17.421419 C9.02765946,17.060819 9.16445945,16.613219 9.52565943,16.420619 C9.88685941,16.228619 10.3350594,16.365419 10.5264594,16.726619" id="Fill-39" fill="#FFFFFF"></path>
                            <g id="Group-43" transform="translate(10.199999, 0.553200)">
                                <mask id="mask-2" fill="white">
                                    <use xlink:href="#path-1"></use>
                                </mask>
                                <g id="Clip-42"></g>
                                <path d="M2.52725985,0.652559961 C2.82305983,1.20995993 2.61185984,1.90115989 2.05505988,2.19695987 C1.49765991,2.49275985 0.806459952,2.28215986 0.51065997,1.7247599 C0.214859987,1.16795993 0.425459975,0.476759972 0.982859941,0.180359989 C1.53965991,-0.115439993 2.23085987,0.0957599943 2.52725985,0.652559961" id="Fill-41" fill="#FFFFFF" mask="url(#mask-2)"></path>
                            </g>
                            <path d="M5.17625969,1.7500799 C5.47505967,2.31227986 5.26205969,3.01127982 4.69925972,3.3106798 C4.13705975,3.60947978 3.4386598,3.3952798 3.13865981,2.83307983 C2.83985983,2.27087986 3.05345982,1.57187991 3.61565978,1.27307992 C4.17845975,0.974279942 4.87685971,1.18787993 5.17625969,1.7500799" id="Fill-44" fill="#FFFFFF"></path>
                        </g>
                    </g>
                </g>
            </g>
        </g>
    </g>
</svg>